<?xml version="1.0" encoding="utf-8"?>
<!-- Generator: Adobe Illustrator 19.1.0, SVG Export Plug-In . SVG Version: 6.00 Build 0)  -->
<!DOCTYPE svg PUBLIC "-//W3C//DTD SVG 1.1//EN" "http://www.w3.org/Graphics/SVG/1.1/DTD/svg11.dtd">
<svg version="1.1" id="Layer_1" xmlns="http://www.w3.org/2000/svg" xmlns:xlink="http://www.w3.org/1999/xlink" x="0px" y="0px"
	 viewBox="0 0 35 30" style="enable-background:new 0 0 35 30;" xml:space="preserve">
<style type="text/css">
	.st0{fill:#3C80C0;}
	.st1{fill-rule:evenodd;clip-rule:evenodd;fill:#5D626C;}
	.st2{fill:#3A3E48;}
</style>
<path class="st2" d="M25.6,20.7l-4.4-4.4c0.7-1,1-2.2,1-3.5c0-3.5-2.8-6.3-6.3-6.3s-6.3,2.8-6.3,6.3c0,3.5,2.8,6.3,6.3,6.3
	c1.3,0,2.5-0.4,3.5-1l4.4,4.4c0.2,0.2,0.6,0.4,0.9,0.4s0.6-0.1,0.9-0.4C26.1,22,26.1,21.2,25.6,20.7z M12.2,12.8
	c0-2.1,1.7-3.8,3.8-3.8s3.8,1.7,3.8,3.8c0,2.1-1.7,3.8-3.8,3.8S12.2,14.9,12.2,12.8z"/>
</svg>
