<?xml version="1.0" encoding="utf-8"?>
<!-- Generator: Adobe Illustrator 19.1.0, SVG Export Plug-In . SVG Version: 6.00 Build 0)  -->
<!DOCTYPE svg PUBLIC "-//W3C//DTD SVG 1.1//EN" "http://www.w3.org/Graphics/SVG/1.1/DTD/svg11.dtd">
<svg version="1.1" id="Layer_1" xmlns="http://www.w3.org/2000/svg" xmlns:xlink="http://www.w3.org/1999/xlink" x="0px" y="0px"
	 viewBox="0 0 35 30" style="enable-background:new 0 0 35 30;" xml:space="preserve">
<style type="text/css">
	.st0{fill:#3C80C0;}
	.st1{fill-rule:evenodd;clip-rule:evenodd;fill:#5D626C;}
	.st2{fill:#3A3E48;}
</style>
<g>
	<path class="st0" d="M17.5,3c-6.6,0-12,5.4-12,12c0,6.6,5.4,12,12,12s12-5.4,12-12C29.5,8.4,24.1,3,17.5,3z M17.5,25
		c-5.5,0-10-4.5-10-10c0-5.5,4.5-10,10-10s10,4.5,10,10C27.5,20.5,23,25,17.5,25z"/>
	<path class="st0" d="M17.5,12c-0.6,0-1,0.4-1,1v8c0,0.6,0.4,1,1,1s1-0.4,1-1v-8C18.5,12.4,18.1,12,17.5,12z"/>
	<path class="st0" d="M16.8,9.3c-0.2,0.2-0.3,0.4-0.3,0.7c0,0.3,0.1,0.5,0.3,0.7c0.2,0.2,0.4,0.3,0.7,0.3c0.3,0,0.5-0.1,0.7-0.3
		c0.2-0.2,0.3-0.4,0.3-0.7c0-0.3-0.1-0.5-0.3-0.7C17.8,8.9,17.2,8.9,16.8,9.3z"/>
</g>
</svg>
