<?xml version="1.0" encoding="utf-8"?>
<!-- Generator: Adobe Illustrator 19.1.0, SVG Export Plug-In . SVG Version: 6.00 Build 0)  -->
<!DOCTYPE svg PUBLIC "-//W3C//DTD SVG 1.1//EN" "http://www.w3.org/Graphics/SVG/1.1/DTD/svg11.dtd">
<svg version="1.1" id="Layer_1" xmlns="http://www.w3.org/2000/svg" xmlns:xlink="http://www.w3.org/1999/xlink" x="0px" y="0px"
	 viewBox="0 0 35 30" style="enable-background:new 0 0 35 30;" xml:space="preserve">
<style type="text/css">
	.st0{fill:#3C80C0;}
	.st1{fill-rule:evenodd;clip-rule:evenodd;fill:#5D626C;}
	.st2{fill:#3A3E48;}
</style>
<g>
	<path class="st0" d="M17.5,8.1c-2.2,0-4,1.8-4,4s1.8,4,4,4s4-1.8,4-4S19.7,8.1,17.5,8.1z M17.5,14.1c-1.1,0-2-0.9-2-2s0.9-2,2-2
		s2,0.9,2,2S18.6,14.1,17.5,14.1z"/>
	<path class="st0" d="M17.5,3c-5,0-9,4.1-9,9c0,7.5,8,14.4,8.3,14.7c0.2,0.2,0.4,0.2,0.7,0.2s0.5-0.1,0.7-0.2
		c0.3-0.3,8.3-7.3,8.3-14.7C26.5,7.1,22.5,3,17.5,3z M17.5,24.6c-1.9-1.8-7-7.2-7-12.6c0-3.9,3.1-7,7-7s7,3.2,7,7
		C24.5,17.4,19.4,22.9,17.5,24.6z"/>
</g>
</svg>
