<?xml version="1.0" encoding="utf-8"?>
<!-- Generator: Adobe Illustrator 19.1.0, SVG Export Plug-In . SVG Version: 6.00 Build 0)  -->
<!DOCTYPE svg PUBLIC "-//W3C//DTD SVG 1.1//EN" "http://www.w3.org/Graphics/SVG/1.1/DTD/svg11.dtd">
<svg version="1.1" id="Layer_1" xmlns="http://www.w3.org/2000/svg" xmlns:xlink="http://www.w3.org/1999/xlink" x="0px" y="0px"
	 viewBox="0 0 35 30" style="enable-background:new 0 0 35 30;" xml:space="preserve">
<style type="text/css">
	.st0{fill:#3C80C0;}
	.st1{fill-rule:evenodd;clip-rule:evenodd;fill:#5D626C;}
	.st2{fill:#3A3E48;}
</style>
<g>
	<g>
		<g>
			<path class="st0" d="M32.3,27H11.7c-1,0-1.7-0.8-1.7-1.7v-1.5c0-0.4,0.2-0.7,0.5-0.9l8-4.8c0.5-0.3,1.1-0.1,1.4,0.3
				s0.1,1.1-0.3,1.4L12,24.4V25h20v-0.6l-7.5-4.5c-0.5-0.3-0.6-0.9-0.3-1.4s0.9-0.6,1.4-0.3l8,4.8c0.3,0.2,0.5,0.5,0.5,0.9v1.5
				C34,26.2,33.2,27,32.3,27z"/>
		</g>
		<g>
			<path class="st0" d="M25,20c-0.3,0-0.6-0.1-0.8-0.4c-0.3-0.4-0.3-1.1,0.2-1.4c2.6-2,2.6-5.6,2.6-5.6l0-4.2C26.6,6.6,24.3,5,22,5
				c-2.3,0-4.6,1.6-5,3.4l0,4.2c0,0,0,3.7,2.6,5.6c0.4,0.3,0.5,1,0.2,1.4c-0.3,0.4-1,0.5-1.4,0.2c-3.4-2.6-3.4-7-3.4-7.2l0-4.3
				c0-0.1,0-0.1,0-0.2c0.5-3.1,4-5.1,7-5.1c0,0,0,0,0,0c2.9,0,6.4,2.1,7,5.1c0,0.1,0,0.1,0,0.2l0,4.3c0,0.2,0,4.6-3.4,7.2
				C25.4,19.9,25.2,20,25,20z"/>
		</g>
	</g>
	<g>
		<g>
			<path class="st0" d="M7.1,27H2.7c-1,0-1.7-0.8-1.7-1.7v-1.5c0-0.4,0.2-0.7,0.5-0.9l8-4.8c0.5-0.3,1.1-0.1,1.4,0.3
				s0.1,1.1-0.3,1.4L3,24.4V25h4.1c0.6,0,1,0.4,1,1S7.6,27,7.1,27z"/>
		</g>
		<g>
			<path class="st0" d="M10,20c-0.2,0-0.4-0.1-0.6-0.2C6,17.2,6,12.8,6,12.6l0-4.3c0-0.1,0-0.1,0-0.2c0.5-3.1,4-5.1,7-5.1
				c0.4,0,0.8,0,1.2,0.1c0.5,0.1,0.9,0.6,0.8,1.2c-0.1,0.5-0.6,0.9-1.2,0.8C13.6,5,13.3,5,13,5c-2.3,0-4.6,1.6-5,3.4l0,4.2
				c0,0,0,3.7,2.6,5.6c0.4,0.3,0.5,1,0.2,1.4C10.6,19.9,10.3,20,10,20z"/>
		</g>
	</g>
</g>
</svg>
