<?xml version="1.0" encoding="utf-8"?>
<!-- Generator: Adobe Illustrator 19.1.0, SVG Export Plug-In . SVG Version: 6.00 Build 0)  -->
<!DOCTYPE svg PUBLIC "-//W3C//DTD SVG 1.1//EN" "http://www.w3.org/Graphics/SVG/1.1/DTD/svg11.dtd">
<svg version="1.1" id="Layer_1" xmlns="http://www.w3.org/2000/svg" xmlns:xlink="http://www.w3.org/1999/xlink" x="0px" y="0px"
	 viewBox="0 0 35 30" style="enable-background:new 0 0 35 30;" xml:space="preserve">
<style type="text/css">
	.st0{fill:#3C80C0;}
	.st1{fill-rule:evenodd;clip-rule:evenodd;fill:#5D626C;}
	.st2{fill:#3A3E48;}
</style>
<g>
	<g>
		<path class="st0" d="M21.5,27h-8c-1.7,0-3-1.3-3-3V6c0-1.7,1.3-3,3-3h8c1.7,0,3,1.3,3,3v18C24.5,25.7,23.2,27,21.5,27z M13.5,5
			c-0.6,0-1,0.4-1,1v18c0,0.6,0.4,1,1,1h8c0.6,0,1-0.4,1-1V6c0-0.6-0.4-1-1-1H13.5z"/>
	</g>
	<g>
		<path class="st0" d="M18.5,8h-2c-0.6,0-1-0.4-1-1s0.4-1,1-1h2c0.6,0,1,0.4,1,1S19.1,8,18.5,8z"/>
	</g>
	<g>
		<path class="st0" d="M17.5,23.1c-0.6,0-1-0.4-1-1c0-0.6,0.4-1,1-1h0c0.6,0,1,0.4,1,1C18.5,22.6,18.1,23.1,17.5,23.1z"/>
	</g>
</g>
</svg>
